<?xml version="1.0" encoding="UTF-8" standalone="no"?>
<!-- Created with Inkscape (http://www.inkscape.org/) -->

<svg
   width="4.0482287mm"
   height="5.3724694mm"
   viewBox="0 0 4.0482287 5.3724694"
   version="1.1"
   id="svg1"
   xml:space="preserve"
   sodipodi:docname="capital-b.svg"
   inkscape:version="1.4 (e7c3feb100, 2024-10-09)"
   xmlns:inkscape="http://www.inkscape.org/namespaces/inkscape"
   xmlns:sodipodi="http://sodipodi.sourceforge.net/DTD/sodipodi-0.dtd"
   xmlns="http://www.w3.org/2000/svg"
   xmlns:svg="http://www.w3.org/2000/svg"><sodipodi:namedview
     id="namedview1"
     pagecolor="#ffffff"
     bordercolor="#000000"
     borderopacity="0.25"
     inkscape:showpageshadow="2"
     inkscape:pageopacity="0.0"
     inkscape:pagecheckerboard="0"
     inkscape:deskcolor="#d1d1d1"
     inkscape:document-units="mm"
     inkscape:zoom="0.56123737"
     inkscape:cx="121.16085"
     inkscape:cy="39.1991"
     inkscape:window-width="1536"
     inkscape:window-height="875"
     inkscape:window-x="0"
     inkscape:window-y="0"
     inkscape:window-maximized="1"
     inkscape:current-layer="svg1" /><defs
     id="defs1" /><g
     id="layer1"
     transform="translate(-72.927558,-137.89429)"><path
       id="path9"
       style="fill:#000000;stroke-width:0.1;stroke-dasharray:none"
       d="m 74.095219,137.89494 c -0.267082,-0.0132 -0.481897,0.17758 -0.683789,0.32585 -0.252664,0.21932 -0.383397,0.53859 -0.437168,0.86206 -0.104851,0.28443 -0.0011,0.58245 0.0038,0.87324 0.03703,0.27386 0.09668,0.52634 0.108,0.79826 0.0136,0.34913 0.101301,0.69302 0.06675,1.04332 0.0092,0.20179 -0.0066,0.42351 0.0114,0.61278 0.289701,0.14748 1.118528,0.54781 1.223892,0.57231 0.347055,0.20006 0.747617,0.30119 1.14817,0.27844 0.262295,0.0286 0.511519,-0.0578 0.751117,-0.15238 0.246549,-0.0262 0.457895,-0.18713 0.524404,-0.42912 0.07959,-0.2314 0.190709,-0.46225 0.158183,-0.71483 -0.03042,-0.34364 -0.163841,-0.69096 -0.424211,-0.92423 -0.187655,-0.16411 -0.270432,-0.31281 -0.583059,-0.43473 -0.299748,-0.11235 0.114042,-0.29013 0.172953,-0.4646 0.134895,-0.21871 0.119041,-0.48545 0.137777,-0.73062 -0.247316,-1.25785 -1.053375,-1.51609 -2.178175,-1.51609 z m 1.371916,2.1812 c -0.624522,0.36432 -0.525849,0.19891 -1.5531,0.32756 -0.293299,-1.16202 0.08341,-1.8306 0.635689,-1.72254 0.843624,0.16506 1.570848,0.88281 0.917411,1.39498 z m 0.77778,1.52496 c 0.345418,0.97 -0.45176,1.23971 -1.216149,0.91183 -1.2777,-0.23501 -1.265188,-0.24331 -1.081887,-1.48545 1.078089,-0.30713 1.734532,-0.10304 2.298036,0.57362 z m -0.04181,-0.60764 c 0.09266,0.0424 0.355693,0.21256 0.125934,0.0748 -0.0419,-0.025 -0.08443,-0.0496 -0.125934,-0.0748 z" /></g></svg>
