<?xml version="1.0" encoding="UTF-8" standalone="no"?>
<!-- Created with Inkscape (http://www.inkscape.org/) -->

<svg
   width="4.2695122mm"
   height="4.93257mm"
   viewBox="0 0 4.2695122 4.93257"
   version="1.1"
   id="svg1"
   xml:space="preserve"
   sodipodi:docname="capital-a.svg"
   inkscape:version="1.4 (e7c3feb100, 2024-10-09)"
   xmlns:inkscape="http://www.inkscape.org/namespaces/inkscape"
   xmlns:sodipodi="http://sodipodi.sourceforge.net/DTD/sodipodi-0.dtd"
   xmlns="http://www.w3.org/2000/svg"
   xmlns:svg="http://www.w3.org/2000/svg"><sodipodi:namedview
     id="namedview1"
     pagecolor="#ffffff"
     bordercolor="#000000"
     borderopacity="0.25"
     inkscape:showpageshadow="2"
     inkscape:pageopacity="0.0"
     inkscape:pagecheckerboard="0"
     inkscape:deskcolor="#d1d1d1"
     inkscape:document-units="mm"
     inkscape:clip-to-page="false"
     inkscape:zoom="0.56123737"
     inkscape:cx="112.25197"
     inkscape:cy="44.544432"
     inkscape:window-width="1536"
     inkscape:window-height="875"
     inkscape:window-x="0"
     inkscape:window-y="0"
     inkscape:window-maximized="1"
     inkscape:current-layer="svg1" /><defs
     id="defs1" /><g
     id="layer1"
     transform="translate(-75.331308,-136.93037)"><path
       id="path8"
       style="fill:#000000;stroke-width:0.1;stroke-dasharray:none"
       d="m 76.515226,136.93066 c -0.286226,-10e-4 -0.637452,0.11408 -0.809253,0.29972 -0.160931,0.16106 -0.256713,0.37074 -0.293522,0.59325 -0.114587,0.50667 -0.07656,1.03011 -0.06925,1.54512 0.01893,0.23926 0.0096,0.48766 0.04237,0.71882 -0.0094,0.19528 0.05119,0.34788 0.03411,0.54106 0.02214,0.14016 -0.01079,0.65485 0.176217,0.69969 l 0.664042,0.10697 c 0.04958,-0.39909 0.01783,-0.78743 -0.02791,-1.18287 0.158669,-9.9e-4 0.31771,0.0189 0.474907,-0.0103 0.329598,-0.0249 0.66003,0.0115 0.989603,-0.005 0.213791,-0.038 0.430708,-0.0233 0.646989,-0.0165 0.0049,0.015 0.01019,0.0299 0.01499,0.045 0.109322,0.31261 0.21675,0.62938 0.317293,0.94258 0.0212,0.12003 -0.04578,0.27081 0.104386,0.3054 0.273497,0.1164 0.547125,0.23294 0.820622,0.34934 -0.0517,-0.0382 -0.0127,-0.23913 -0.07183,-0.36432 -0.131617,-0.34899 -0.247874,-0.70595 -0.370003,-1.05937 -0.17657,-0.3912 -0.352685,-0.78242 -0.552938,-1.1622 -0.150976,-0.3332 -0.35889,-0.63935 -0.476974,-0.98754 -0.131498,-0.29434 -0.20273,-0.52256 -0.474389,-0.78186 -0.280553,-0.29544 -0.368855,-0.52068 -0.954464,-0.55708 -0.05607,-0.0134 -0.11895,-0.0197 -0.185002,-0.0202 z m 0.164331,0.80357 c 0.16325,-0.0145 0.322209,0.13117 0.520899,0.22893 0.274355,0.22899 0.471231,0.77019 0.624251,1.11362 0.06805,0.1147 0.131391,0.232 0.191203,0.35089 -0.336119,0.012 -0.783689,0.035 -0.994255,0.0455 -0.254547,0.024 -0.510554,0.005 -0.765844,0.0171 -0.01774,-4.3e-4 -0.03549,1.4e-4 -0.05323,0 -0.0019,-0.12588 -0.0027,-0.25167 0,-0.37775 -0.02166,-0.38475 0.03526,-0.7735 0.168982,-1.1343 0.110698,-0.16876 0.210041,-0.2352 0.307991,-0.24391 z" /></g></svg>
